#tb 0: 1001/30000
#media_type 0: video
#codec_id 0: rawvideo
#dimensions 0: 128x128
#sar 0: 4/3
0,          1,          1,        1,    24576, 0x562877ac
0,          2,          2,        1,    24576, 0x51aec0c1
0,          3,          3,        1,    24576, 0x7fc6e130
0,          4,          4,        1,    24576, 0xcf951c3a
0,          5,          5,        1,    24576, 0x3aef5b4a
